<mxfile host="Electron" modified="2023-05-16T10:40:39.548Z" agent="Mozilla/5.0 (Windows NT 10.0; Win64; x64) AppleWebKit/537.36 (KHTML, like Gecko) draw.io/21.2.8 Chrome/112.0.5615.165 Electron/24.2.0 Safari/537.36" etag="jTROWWCWtZcdfKPb57BI" version="21.2.8" type="device">
  <diagram name="StrÃ¡nka-1" id="TyWXl5iNW17CQ_5PIMkU">
    <mxGraphModel dx="567" dy="328" grid="1" gridSize="10" guides="1" tooltips="1" connect="1" arrows="1" fold="1" page="1" pageScale="1" pageWidth="827" pageHeight="1169" math="0" shadow="0">
      <root>
        <mxCell id="0" />
        <mxCell id="1" parent="0" />
        <mxCell id="1DFzek5AaE8hnReULCzg-25" value="" style="rounded=0;whiteSpace=wrap;html=1;fillColor=none;" parent="1" vertex="1">
          <mxGeometry x="180" y="160" width="370" height="150" as="geometry" />
        </mxCell>
        <mxCell id="1DFzek5AaE8hnReULCzg-1" value="Jaculus machine" style="rounded=0;whiteSpace=wrap;html=1;fillColor=#A2DEA4;" parent="1" vertex="1">
          <mxGeometry x="200" y="180" width="290" height="60" as="geometry" />
        </mxCell>
        <mxCell id="1DFzek5AaE8hnReULCzg-22" style="edgeStyle=orthogonalEdgeStyle;rounded=0;orthogonalLoop=1;jettySize=auto;html=1;exitX=1;exitY=0.5;exitDx=0;exitDy=0;entryX=0;entryY=0.5;entryDx=0;entryDy=0;endArrow=none;endFill=0;" parent="1" source="1DFzek5AaE8hnReULCzg-2" target="1DFzek5AaE8hnReULCzg-3" edge="1">
          <mxGeometry relative="1" as="geometry" />
        </mxCell>
        <mxCell id="1DFzek5AaE8hnReULCzg-2" value="Link" style="rounded=0;whiteSpace=wrap;html=1;fillColor=#D6D6D6;" parent="1" vertex="1">
          <mxGeometry x="200" y="250" width="90" height="40" as="geometry" />
        </mxCell>
        <mxCell id="1DFzek5AaE8hnReULCzg-3" value="Control interface" style="rounded=0;whiteSpace=wrap;html=1;fillColor=#C8ADF0;" parent="1" vertex="1">
          <mxGeometry x="300" y="250" width="90" height="40" as="geometry" />
        </mxCell>
        <mxCell id="1DFzek5AaE8hnReULCzg-24" style="edgeStyle=orthogonalEdgeStyle;rounded=0;orthogonalLoop=1;jettySize=auto;html=1;exitX=0;exitY=0.5;exitDx=0;exitDy=0;entryX=1;entryY=0.5;entryDx=0;entryDy=0;endArrow=none;endFill=0;" parent="1" source="1DFzek5AaE8hnReULCzg-4" target="1DFzek5AaE8hnReULCzg-3" edge="1">
          <mxGeometry relative="1" as="geometry" />
        </mxCell>
        <mxCell id="1DFzek5AaE8hnReULCzg-4" value="Filesystem" style="whiteSpace=wrap;html=1;fillColor=#FF9999;" parent="1" vertex="1">
          <mxGeometry x="400" y="250" width="90" height="40" as="geometry" />
        </mxCell>
        <mxCell id="1DFzek5AaE8hnReULCzg-12" value="Peripheral drivers" style="rounded=0;whiteSpace=wrap;html=1;fillColor=#FF9999;rotation=-90;" parent="1" vertex="1">
          <mxGeometry x="460" y="220" width="110" height="30" as="geometry" />
        </mxCell>
        <mxCell id="1DFzek5AaE8hnReULCzg-18" style="edgeStyle=orthogonalEdgeStyle;rounded=0;orthogonalLoop=1;jettySize=auto;html=1;exitX=0.5;exitY=0;exitDx=0;exitDy=0;entryX=0.5;entryY=1;entryDx=0;entryDy=0;endArrow=none;endFill=0;" parent="1" edge="1">
          <mxGeometry relative="1" as="geometry">
            <mxPoint x="344.94" y="250" as="sourcePoint" />
            <mxPoint x="344.94" y="240" as="targetPoint" />
          </mxGeometry>
        </mxCell>
        <mxCell id="1DFzek5AaE8hnReULCzg-19" style="edgeStyle=orthogonalEdgeStyle;rounded=0;orthogonalLoop=1;jettySize=auto;html=1;exitX=0.5;exitY=0;exitDx=0;exitDy=0;entryX=0.5;entryY=1;entryDx=0;entryDy=0;endArrow=none;endFill=0;" parent="1" edge="1">
          <mxGeometry relative="1" as="geometry">
            <mxPoint x="244.94" y="250" as="sourcePoint" />
            <mxPoint x="244.94" y="240" as="targetPoint" />
          </mxGeometry>
        </mxCell>
        <mxCell id="1DFzek5AaE8hnReULCzg-20" style="edgeStyle=orthogonalEdgeStyle;rounded=0;orthogonalLoop=1;jettySize=auto;html=1;exitX=0.5;exitY=0;exitDx=0;exitDy=0;entryX=0.5;entryY=1;entryDx=0;entryDy=0;endArrow=none;endFill=0;" parent="1" edge="1">
          <mxGeometry relative="1" as="geometry">
            <mxPoint x="444.94" y="250" as="sourcePoint" />
            <mxPoint x="444.94" y="240" as="targetPoint" />
          </mxGeometry>
        </mxCell>
        <mxCell id="1DFzek5AaE8hnReULCzg-26" value="" style="endArrow=classic;startArrow=classic;html=1;rounded=0;entryX=0.5;entryY=0;entryDx=0;entryDy=0;exitX=0.5;exitY=1;exitDx=0;exitDy=0;" parent="1" source="1DFzek5AaE8hnReULCzg-12" target="1DFzek5AaE8hnReULCzg-28" edge="1">
          <mxGeometry width="50" height="50" relative="1" as="geometry">
            <mxPoint x="560" y="280" as="sourcePoint" />
            <mxPoint x="345" y="140" as="targetPoint" />
          </mxGeometry>
        </mxCell>
        <mxCell id="1DFzek5AaE8hnReULCzg-28" value="Outside world" style="rounded=1;whiteSpace=wrap;html=1;rotation=-90;" parent="1" vertex="1">
          <mxGeometry x="510" y="220" width="150" height="30" as="geometry" />
        </mxCell>
        <mxCell id="1DFzek5AaE8hnReULCzg-34" value="" style="endArrow=classic;startArrow=classic;html=1;rounded=0;" parent="1" edge="1">
          <mxGeometry width="50" height="50" relative="1" as="geometry">
            <mxPoint x="160" y="269.76" as="sourcePoint" />
            <mxPoint x="200" y="269.76" as="targetPoint" />
          </mxGeometry>
        </mxCell>
        <mxCell id="1DFzek5AaE8hnReULCzg-35" value="Host machine (user)" style="rounded=1;whiteSpace=wrap;html=1;rotation=-90;" parent="1" vertex="1">
          <mxGeometry x="70" y="220" width="150" height="30" as="geometry" />
        </mxCell>
        <mxCell id="Q09ZI5ICWGXIfbkjp1ls-1" style="edgeStyle=orthogonalEdgeStyle;rounded=0;orthogonalLoop=1;jettySize=auto;html=1;exitX=1;exitY=0.5;exitDx=0;exitDy=0;entryX=0;entryY=0.5;entryDx=0;entryDy=0;endArrow=none;endFill=0;" edge="1" parent="1">
          <mxGeometry relative="1" as="geometry">
            <mxPoint x="490" y="209.8" as="sourcePoint" />
            <mxPoint x="500" y="209.8" as="targetPoint" />
          </mxGeometry>
        </mxCell>
      </root>
    </mxGraphModel>
  </diagram>
</mxfile>
